HIERARCHY
ROOT hip
{
	OFFSET 0.000000 0.000000 0.000000
	CHANNELS 6  Xposition Yposition Zposition Xrotation Zrotation Yrotation
	JOINT abdomen
	{
		OFFSET 0.000000 3.402643 0.000000
			CHANNELS 3 Xrotation Zrotation Yrotation
		JOINT chest
		{
			OFFSET 0.000000 8.438565 -0.680529
				CHANNELS 3 Xrotation Zrotation Yrotation
			JOINT neck
			{
				OFFSET 0.000000 10.207942 -0.272212
					CHANNELS 3 Xrotation Zrotation Yrotation
				JOINT head
				{
					OFFSET 0.000000 3.130431 0.000000
						CHANNELS 3 Xrotation Zrotation Yrotation
					End Site
					{
						OFFSET 0.000000 3.130435 0.000000
					}
				}
			}
			JOINT lCollar
			{
				OFFSET 3.470700 6.669187 -0.816635
					CHANNELS 3 Yrotation Zrotation Xrotation
				JOINT lShldr
				{
					OFFSET 3.198488 0.000000 0.000000
						CHANNELS 3 Zrotation Yrotation Xrotation
					JOINT lForeArm
					{
						OFFSET 10.139888 0.000000 0.000000
							CHANNELS 3 Yrotation Zrotation Xrotation
						JOINT lHand
						{
							OFFSET 8.370511 0.000000 0.000000
								CHANNELS 3 Zrotation Yrotation Xrotation
							End Site
							{
								OFFSET 4.083176 0.000000 0.000000
							}
						}
					}
				}
			}
			JOINT rCollar
			{
				OFFSET -3.470700 6.669187 -0.816635
					CHANNELS 3 Yrotation Zrotation Xrotation
				JOINT rShldr
				{
					OFFSET -3.198488 0.000000 0.000000
						CHANNELS 3 Zrotation Yrotation Xrotation
					JOINT rForeArm
					{
						OFFSET -10.139888 0.000000 0.000000
							CHANNELS 3 Yrotation Zrotation Xrotation
						JOINT rHand
						{
							OFFSET -8.370511 0.000000 0.000000
								CHANNELS 3 Zrotation Yrotation Xrotation
							End Site
							{
								OFFSET -4.083176 0.000000 0.000000
							}
						}
					}
				}
			}
		}
	}
	JOINT lThigh 
	{
		OFFSET 5.308129 -1.633274 1.361059
			CHANNELS 3 Xrotation Zrotation Yrotation
		JOINT lShin
		{
			OFFSET -2.041588 -20.007561 0.000000
				CHANNELS 3 Xrotation Zrotation Yrotation
			JOINT lFoot
			{
				OFFSET 0.000000 -19.190928 -1.224953
					CHANNELS 3 Xrotation Yrotation Zrotation
				End Site
				{
					OFFSET 0.000000 -2.449906 4.627600
				}
			}
		}
	}
	JOINT rThigh
	{
		OFFSET -5.308129 -1.633274 1.361059
			CHANNELS 3 Xrotation Zrotation Yrotation
		JOINT rShin
		{
			OFFSET 2.041588 -20.007561 0.000000
				CHANNELS 3 Xrotation Zrotation Yrotation
			JOINT rFoot
			{
				OFFSET 0.000000 -19.190928 -1.224953
					CHANNELS 3 Xrotation Yrotation Zrotation
				End Site
				{
					OFFSET 0.000000 -2.449906 4.627600
				}
			}
		}
	}
}
MOTION
Frames: 16
Frame Time: 0.032000
1170.388672 47.369869 3287.854248 20.29 -8.46 16.68 1.20 -0.95 9.78 0.51 -0.41 4.19 -2.74 -1.55 -3.15 7.72 -0.04 -3.12 0.56 -2.14 -0.09 -67.64 36.44 14.85 -111.28 2.41 28.51 13.10 15.69 3.58 4.78 -6.04 -0.02 78.35 -2.14 25.41 101.08 -2.65 29.74 -42.29 0.80 -0.67 -52.50 3.80 2.72 33.01 -1.04 -2.68 16.17 -5.55 -10.91 -16.79 -5.16 -8.58 100.86 -3.68 3.49 -0.00 -0.00 0.00 
1172.650635 45.673412 3294.814941 21.70 -5.10 16.34 2.16 -3.69 3.48 0.92 -1.57 1.49 -4.84 -0.50 -0.73 5.65 1.53 -0.69 2.38 -5.72 -0.10 -71.67 18.87 13.17 -109.32 2.57 31.09 14.15 15.31 3.72 5.06 -5.15 -0.06 79.85 -9.48 18.92 90.04 -2.90 32.42 -38.93 9.54 -7.68 -49.92 0.80 7.25 45.45 -0.61 -2.93 0.22 -4.56 -11.99 -30.36 -11.43 -6.90 117.88 -4.57 2.64 -0.00 -0.00 0.00 
1177.257446 45.478748 3309.168213 22.11 -3.33 16.18 4.21 -4.13 -3.38 1.80 -1.76 -1.44 -6.31 0.20 1.04 4.96 3.79 0.99 0.27 -5.00 -0.15 -77.13 -1.12 10.35 -108.26 3.00 37.04 13.35 13.83 3.13 5.30 -5.18 -0.05 79.01 -20.54 10.88 85.15 -3.01 35.09 -34.39 10.28 -7.19 -41.46 -2.23 4.51 48.56 -0.71 -3.18 -6.45 -2.46 -12.46 -49.42 -13.47 -3.98 124.19 -4.87 2.30 -0.00 -0.00 0.00 
1176.931763 46.797726 3308.108154 22.92 -5.65 15.96 3.90 0.15 -9.51 1.66 0.06 -4.07 -5.66 -0.20 4.25 5.93 2.13 4.22 1.00 -3.45 -0.12 -83.38 -12.54 7.95 -110.85 3.24 41.33 14.90 13.89 3.58 4.46 -6.01 -0.06 69.41 -30.70 16.06 86.38 -2.89 33.69 -33.67 10.14 -6.83 -31.40 -0.21 1.14 44.96 -0.31 -3.20 -1.64 -4.13 -12.31 -65.16 -11.09 -4.83 117.26 -4.53 2.98 -0.00 -0.00 0.00 
1179.418701 48.749542 3315.817871 22.89 -7.87 15.87 3.12 3.13 -13.23 1.33 1.33 -5.66 -5.13 1.29 7.61 6.64 -1.45 7.83 3.06 -1.50 -0.10 -86.29 -16.79 7.15 -115.07 3.23 39.99 11.16 13.31 2.57 4.49 -7.69 -0.09 60.44 -39.42 23.90 88.55 -2.76 31.81 -34.42 9.77 -6.87 -20.34 3.98 1.24 37.84 -0.72 -2.43 11.97 -9.25 -10.30 -71.48 -6.88 -4.39 100.73 -3.72 3.55 -0.00 -0.00 0.00 
1178.595581 48.526009 3312.037109 25.10 -9.14 15.53 4.06 6.00 -15.99 1.74 2.57 -6.85 -8.71 3.67 7.09 7.94 -3.60 7.70 2.54 -1.09 -0.14 -87.14 -22.91 11.41 -119.71 3.17 39.57 15.70 16.95 4.61 5.43 -11.50 -0.01 54.97 -47.17 27.27 88.56 -1.40 14.42 -29.32 14.87 -8.33 -18.17 5.29 -0.61 35.89 -0.96 -2.55 9.76 -4.14 -11.25 -81.04 -4.19 -0.25 101.59 -3.50 3.37 -0.00 -0.00 0.00 
1184.487427 50.148453 3331.071045 25.33 -11.06 15.46 3.18 7.74 -15.33 1.36 3.32 -6.56 -7.46 4.30 8.11 7.95 -7.21 8.91 3.33 -0.40 -0.16 -85.68 -19.92 10.61 -122.09 3.23 41.09 18.32 19.08 6.11 7.20 -13.13 -0.02 53.07 -57.15 28.15 91.12 -2.07 22.60 -34.28 16.40 -11.16 -10.59 8.33 4.18 34.93 -0.88 -2.70 22.84 -4.23 -10.55 -78.22 -1.49 1.02 75.22 -1.95 3.84 -0.00 -0.00 0.00 
1186.559814 50.765015 3337.886719 25.65 -9.77 15.36 3.38 8.73 -15.37 1.45 3.74 -6.58 -7.86 4.19 8.69 8.04 -9.12 9.35 3.67 -1.04 -0.12 -84.46 -15.93 8.74 -120.67 3.33 42.75 14.55 12.77 3.26 7.85 -13.16 -0.10 59.71 -62.44 18.13 92.20 -2.78 31.15 -38.37 20.38 -15.51 -9.61 6.84 3.75 50.49 -0.11 -3.11 28.03 -5.25 -9.55 -70.96 -2.96 1.31 48.24 -0.35 3.00 -0.00 -0.00 0.00 
1191.403564 50.078136 3353.714111 24.68 -8.23 15.44 4.37 9.36 -13.66 1.87 4.01 -5.85 -7.71 3.48 7.94 7.61 -11.64 8.71 3.29 -1.50 -0.08 -84.59 -11.25 9.85 -115.99 3.62 46.28 13.11 13.78 3.20 6.39 -11.18 -0.14 68.11 -55.96 6.84 93.04 -2.72 31.16 -34.83 19.67 -13.34 -12.01 4.19 3.14 73.24 0.86 -3.72 31.06 -5.57 -9.25 -63.29 -4.46 -0.28 34.42 0.69 2.31 -0.00 -0.00 0.00 
1191.196167 48.661461 3353.148926 22.97 -8.57 15.62 3.57 10.49 -9.44 1.53 4.49 -4.04 -4.61 1.76 6.45 7.34 -13.20 7.09 2.00 -1.63 -0.12 -85.66 -3.48 12.43 -108.59 3.55 43.85 12.90 16.74 3.70 4.98 -6.70 -0.08 66.87 -45.14 5.09 94.02 -2.52 29.39 -29.97 13.01 -7.61 -15.78 3.88 5.80 95.89 2.22 -3.88 31.79 -2.24 -11.03 -56.64 -3.85 -5.30 35.45 0.75 2.20 -0.00 -0.00 0.00 
1193.268677 46.602322 3359.964111 22.13 -11.07 15.73 2.61 12.87 -3.10 1.12 5.51 -1.33 -3.95 -0.63 5.12 6.49 -14.23 5.56 2.25 -3.28 -0.05 -85.94 4.34 14.43 -98.88 3.14 39.79 13.25 16.92 3.95 3.72 -2.26 -0.05 64.88 -27.70 5.11 94.70 -2.40 27.71 -27.12 11.57 -6.10 -26.50 6.90 8.50 117.77 3.62 -3.66 35.56 -5.66 -8.42 -50.86 -1.33 -10.35 43.56 0.45 2.42 -0.00 -0.00 0.00 
1197.774902 45.457287 3374.734863 21.17 -14.22 15.92 4.08 13.88 3.11 1.74 5.95 1.33 -7.56 -0.38 4.53 6.70 -16.21 5.23 1.28 -2.55 -0.12 -86.08 13.09 11.44 -93.74 3.11 38.11 14.90 19.99 5.19 4.90 -0.82 -0.11 67.40 -5.51 7.11 96.99 -2.50 28.91 -28.06 12.94 -6.91 -45.75 10.46 5.69 130.07 4.32 -3.00 39.51 -10.04 -4.71 -45.04 4.08 -7.57 50.05 0.08 3.21 -0.00 -0.00 0.00 
1197.620850 46.019070 3374.267334 22.13 -12.34 15.72 3.97 10.82 7.35 1.70 4.63 3.15 -7.01 -0.29 2.67 6.84 -14.96 3.32 0.73 -0.56 -0.17 -81.75 23.66 13.48 -93.71 2.74 33.13 15.36 22.30 5.97 6.41 -3.14 -0.04 74.82 11.07 9.91 101.79 -2.61 30.99 -30.66 11.88 -7.02 -65.56 6.50 2.81 127.43 4.49 -3.14 37.33 -5.28 -8.54 -34.65 2.82 -3.20 48.74 0.03 3.22 -0.00 -0.00 0.00 
1202.772339 47.817673 3391.190430 23.44 -8.09 15.49 2.74 6.98 10.60 1.17 2.99 4.54 -5.41 -1.73 -1.35 9.00 -11.12 -1.20 0.09 0.75 -0.01 -71.06 33.44 22.88 -98.66 2.81 33.10 13.79 20.46 4.93 5.00 -5.92 -0.01 78.52 19.49 14.90 109.46 -2.65 32.40 -31.49 9.36 -5.81 -75.00 -1.33 0.74 110.64 3.72 -3.30 29.11 -0.42 -12.14 -21.91 -3.05 -2.94 43.31 -0.01 2.55 -0.00 -0.00 0.00 
1202.594727 49.574829 3390.595459 24.96 -5.82 15.30 1.09 3.92 13.43 0.46 1.68 5.75 -4.76 -3.51 -4.61 9.93 -8.42 -4.74 -1.38 1.77 -0.13 -60.73 42.28 28.92 -105.01 2.37 28.14 12.13 19.01 3.97 3.60 -7.48 -0.05 77.20 19.55 17.47 116.33 -2.64 32.17 -30.64 9.86 -5.93 -75.27 -4.86 -1.30 85.89 2.03 -4.25 25.82 -1.81 -11.48 -13.96 -6.49 -5.11 40.98 0.16 2.40 -0.00 -0.00 0.00 
1204.525024 50.557026 3396.939941 24.43 -6.94 15.35 0.60 2.22 16.27 0.25 0.94 6.97 -5.03 -4.38 -6.10 10.09 -5.58 -6.49 -2.20 2.24 -0.09 -52.44 50.18 31.77 -110.68 2.04 24.91 12.57 17.61 3.82 3.60 -8.07 -0.14 75.11 17.17 19.51 119.53 -2.55 31.83 -30.39 11.72 -6.95 -70.02 -2.56 -3.63 56.52 -0.08 -3.86 22.49 -2.40 -11.21 -9.50 -5.31 -5.11 48.42 0.04 2.94 -0.00 -0.00 0.00 
